# xmcd
#
# Track frame offsets:
#  150
#  13500
#  31350
#  48600
#  62700
#  81000
#  98100
#  110100
#  123750
#  138750
#  158100
#  179100
#  189750
#  211500
#  229800
#
# Disc length: 3300 seconds
#
# Revision: 0
# Processed by: cddbd v1.5.1PL2 Copyright (c) Steve Scherf et al.
# Submitted via: Collectorz.com_Music_Collector 6.9
#
DISCID=c00ce20f
DTITLE=The Roustabouts - Fried Chicken to Go
DYEAR=2005
DGENRE=Blues
TTITLE0=Snakehandler (Mark 16:17)
TTITLE1=Undivided Love
TTITLE2=Baby What's Wrong
TTITLE3=Season of Death
TTITLE4=Gimme Gimme Gimme
TTITLE5=Don't Sweep on My Feet
TTITLE6=Red Rose
TTITLE7=Lonely Blue Dreams
TTITLE8=Love Me Tonight
TTITLE9=My Home
TTITLE10=Who's Been Talking?
TTITLE11=Don't Come Knoching on My Door
TTITLE12=Boxcars
TTITLE13=Cut You Loose
TTITLE14=Everything
EXTD=
EXTT0=
EXTT1=
EXTT2=
EXTT3=
EXTT4=
EXTT5=
EXTT6=
EXTT7=
EXTT8=
EXTT9=
EXTT10=
EXTT11=
EXTT12=
EXTT13=
EXTT14=
PLAYORDER=
